# xmcd
#
# Track frame offsets: 
#        150
#        14752
#        29045
#        47725
#        64212
#        83929
#        103360
#        122472
#        139440
#        158677
#        185487
#        204247
#
# Disc length: 3150 seconds
#
# Revision: 13
# Processed by: cddbd v1.5.2PL0 Copyright (c) Steve Scherf et al.
# Submitted via: ExactAudioCopy v1.0b6
#
DISCID=af0c4c0c
DTITLE=安室奈美恵 - Queen of Hip Hop
DYEAR=20050713
DGENRE=J-Pop
TTITLE0=Queen of Hip Hop
TTITLE1=WANT ME, WANT ME
TTITLE2=WoWa
TTITLE3=I Wanna Show You My Love
TTITLE4=GIRL TALK
TTITLE5=Free
TTITLE6=My Darling
TTITLE7=Ups and Downs duet with Nao'ymt
TTITLE8=I Love You
TTITLE9=ALL FOR YOU
TTITLE10=ALARM
TTITLE11=No
EXTD=YEAR: 20050713
EXTT0=
EXTT1=
EXTT2=
EXTT3=
EXTT4=
EXTT5=
EXTT6=
EXTT7=
EXTT8=
EXTT9=
EXTT10=
EXTT11=
PLAYORDER=
